# xmcd
#
# Track frame offsets:
#	150
#	16175
#	31798
#	45435
#	62765
#	75553
#	90955
#	102438
#	112728
#	122210
#	136000
#	156473
#
# Disc length: 2271 seconds
#
# Revision: 0
# Processed by: cddbd v1.5.1PL0 Copyright (c) Steve Scherf et al.
# Submitted via: EasyCDDAExtractor 8.0.2.1
#
DISCID=8408dd0c
DTITLE=Amália Rodrigues - Cantigas Da Boa Gente
DYEAR=1977
DGENRE=Fado
TTITLE0=Cantiga Da Boa Gente
TTITLE1=Alamares
TTITLE2=Fado Eugénia Da Câmara
TTITLE3=Assim Nasceu Este Fado
TTITLE4=Caminhos De Deus
TTITLE5=Fado Do Ciúme
TTITLE6=Não Sei Porque Te Foste Embora
TTITLE7=Andorinha
TTITLE8=Malmequer Pequenino
TTITLE9=Maria Da Cruz
TTITLE10=As Águias
TTITLE11=Só Á Noitinha
EXTD=
EXTT0=
EXTT1=
EXTT2=
EXTT3=
EXTT4=
EXTT5=
EXTT6=
EXTT7=
EXTT8=
EXTT9=
EXTT10=
EXTT11=
PLAYORDER=
